<svg xmlns="http://www.w3.org/2000/svg" viewBox="0 0 577 433" preserveAspectRatio="xMidYMid meet"><path fill="#fff" d="m279.305 83.797 2.05-.022C301.73 83.611 319.086 84.91 338 93l1.943.828c10.8 4.656 10.8 4.656 12.057 7.172q1.995 1.008 4 2c2.445 1.577 4.815 3.255 7.188 4.938l1.943 1.341 1.85 1.31 1.684 1.184C370 113 370 113 371 116c1.322.689 2.657 1.353 4 2 1.563 1.586 1.563 1.586 3 3.375 1.732 2.114 3.41 4.024 5.375 5.938C385 129 385 129 385 131h2a75 75 0 0 1 3.625 5.375l.984 1.54C394 141.73 394 141.73 394 144h2c12.044 18.154 15.223 41.443 15.25 62.625l.004 1.866c-.005 9.802-.781 19.003-3.254 28.509l-.727 3.086c-4.163 16.7-13.728 32.405-24.586 45.601l-1.311 1.606c-1.078 1.277-2.222 2.498-3.376 3.707h-2v2h-2v2c-4.47 4-4.47 4-7 4l-1 3c-1.237 1.132-1.237 1.132-2.816 2.2l-1.79 1.213-1.957 1.274-2.038 1.334c-20.16 12.926-42.043 20.371-66.077 20.295-2.056-.003-4.11.02-6.166.045-12.432.06-24.234-1.978-36.031-5.986l-2.25-.762C227.377 314.7 208.889 302.3 196 286l-2.312-2.25C192 282 192 282 192 280h-2c-5.179-6.177-8.575-13.77-12-21l-1.09-2.238c-3.045-6.495-5.24-13.294-7.393-20.126q-.606-1.913-1.244-3.816C165.143 222.306 165.7 209.84 166 199c.017-1.05.034-2.101.05-3.184 1.02-25.205 11.85-47.825 27.102-67.425 1.802-2.246 1.802-2.246 2.977-4.22L197 123h2v-2c1.61-1.656 1.61-1.656 3.75-3.5l2.11-1.844C207 114 207 114 209.265 112.906L211 112v-2c17.994-15.615 44.545-26.038 68.305-26.203m-12.18 6.516-2.429.356c-5.188.857-9.83 2.37-14.696 4.331q-1.81.633-3.625 1.25c-9.135 3.468-17.701 8.045-25.75 13.563l-1.714 1.166c-1.345.951-2.634 1.98-3.911 3.021v2l-4 2c-12.955 9.147-22.658 24.74-29 39l-1.367 3.027c-2.842 6.534-4.968 13.05-6.633 19.973l-.59 2.3c-2.435 10.01-4.725 23.755-1.41 33.7l-.062 3.25c-.047 3.165.522 5.828 1.492 8.86.86 2.851 1.418 5.76 2.007 8.68.641 2.518 1.562 4.812 2.563 7.21l.965 2.465c1.822 4.63 3.7 9.134 6.035 13.535l1.309 2.527c2.78 5.267 5.705 10.137 9.394 14.817C197 279 197 279 198.047 280.719L199 282h2l2 4h2l.855 1.75c1.404 2.76 3.116 4.235 5.458 6.25l2.433 2.102c2.39 2.012 4.772 4 7.254 5.898l1.625 1.25c1.553.99 1.553.99 4.375.75v2a93 93 0 0 0 6.938 3.75l2.168 1.067c10.462 5.022 21.254 9.706 32.988 10.078C271 321 271 321 272 322c2.357.442 4.62.766 7 1l2.36.238c2.313.133 4.357.164 6.64-.238 2.537-2.004 2.537-2.004 3-5-1.603-2.775-1.603-2.775-4-5l-2-2v2l-3.375-.75c-1.884-.427-1.884-.427-3.625-.25-1.567 2.868-1.567 2.868-2 6l-1.25-1.375c-1.823-1.693-3.525-2.548-5.75-3.625l-2-2-1.375 2.563L264 316l-2-1c.375-3.062.375-3.062 1-6l-2.375.688L258 310c-2.566-2.75-2.412-5.668-2.32-9.25L256 299c1.75-1.125 1.75-1.125 4-1 2.063.938 2.063.938 4 2h3l6 1c5.81.919 11.567 1.103 17.438 1.125l2.153.014c3.831.051 3.831.051 7.409-1.139l-.488 2.137c-.526 2.943-.68 5.688-.7 8.676l-.042 2.957.23 2.23h2l-.25 2.5.25 2.5c3.812.532 7.283-.12 11-1l2.25-.375L316 320l1-3c3.063-.187 3.063-.187 6 0l-5-4v2c-8.017-4.381-8.017-4.381-10-10-2.138.076-2.138.076-4 1v-6l1.938.688c4.999.51 9.615-1.465 14.062-3.688v-2h-3l2.063-1.375L321 292l-1-2c-3.584.281-6.535.842-9.937 2-16.643 5.434-37.315 2.573-53.254-3.587-2.009-.78-2.009-.78-4.809-1.413l-1 3h-3c-.417 1.915-.417 1.915 0 4l2 2-1.875 1.313L246 299a100 100 0 0 0 0 5h-3l-1 3h-3a70 70 0 0 1-1-4h-2l-1-2.562-1-2.438-2 1v3c-2.125-.062-2.125-.062-4-1 .347-1.892.978-3.534 1.715-5.309L230 294c-1.374-1.272-1.374-1.272-3-2l.188 2.5L227 297h-3c-.363-2.336-.363-2.336-.312-5.375l.011-3.023C224 286 224 286 226 284h-2l1-4c4.242 1.954 7.81 4.69 11.563 7.441 2.24 1.433 3.844 2.12 6.437 2.559l-.625-2.375L242 285l2-2c-1.675-1.517-3.268-2.737-5.125-4l-1.516-1.078c-2.162-1.517-4.297-2.891-6.668-4.059-2.294-1.17-2.575-2.565-3.691-4.863-1.563-1.847-3.19-3.371-5-5h-2l-.75-2c-1.133-2.72-2.107-4.151-3.937-6.375C208.22 246.411 204.28 235.287 202 224l-.617-2.402c-4.446-18.3-.782-41.235 8.703-57.456a246 246 0 0 1 6.023-9.244c1.997-2.792 1.997-2.792 2.891-5.898h2v-2h2c1.737-1.755 1.737-1.755 3.5-3.937 3.298-3.962 3.298-3.962 5.5-5.063v-2h2v-2a276 276 0 0 1 4-1 73 73 0 0 0 4-2.75c17.803-12.12 40.063-14.864 61-12.25 1.786.34 3.417.762 5.133 1.355 1.516.524 3.06.966 4.61 1.383 6.684 1.855 12.792 4.292 19.007 7.387l2.133 1.057c4.986 2.556 4.986 2.556 6.117 4.818 2.358 1.53 4.681 2.858 7.25 4 1.75 1 1.75 1 2.75 4 1.526 1.888 3.184 3.361 5 5h2l2 5h2a162 162 0 0 1 2 5q1.417 2.161 2.938 4.25c2.57 3.752 4.162 7.252 5.421 11.61.621 2.206.621 2.206 1.621 4.511 3.755 9.68 4.36 20.114 4.832 30.379l.16 3.212.11 3.022.1 2.71c-.195 2.472-.681 3.396-2.182 5.306-1.207 3.98-2 7.902-2 12.063V236h-2c-.782 1.764-.782 1.764-1.375 4-1.418 4.55-3.074 8.951-5.625 13l-2 1a259 259 0 0 0-3 5c-3.163 5.071-6.775 8.763-11.426 12.52L347 273v2l-1.691.414c-2.949.748-4.796 2.171-7.247 3.961C328.943 286 328.943 286 326 286v2c1.899.742 1.899.742 4.25 1.188l2.39.542c2.455.28 4.066.18 6.36-.73v-2l2.125-.812c3.493-1.443 6.291-3.417 8.875-6.188v-2h2l.313 3.063c.425 4.028 2.123 6.356 4.628 9.457C358 292 358 292 358 294c-3.27-.564-4.826-1.5-7-4l-1 3 1 2-3-.687-3-.313v3h2c.5 2.375.5 2.375 0 5-3 1.188-3 1.188-6 2v2c-1.898.012-1.898.012-4.375-.312l-2.46-.301C332 305 332 305 330 304l.25 3.438c.016 1.937.016 1.937-.25 3.562-2 .938-2 .938-4 1 1.165 1.666 1.165 1.666 3 3 8.373-1.024 16.081-5.887 23.188-10.187l1.748-1.046c1.392-.864 2.734-1.81 4.064-2.767v-2l5-2v-2q1.99-1.019 4-2c1.952-1.638 1.952-1.638 3.75-3.5l1.86-1.844c1.604-1.55 1.604-1.55 1.39-3.656l1.938-.937c2.408-.938 2.408-.938 3.062-4.063h2v-3h2l1-2.5 1-2.5h2a69 69 0 0 0 3.063-5.687l.814-1.608c1.251-2.543 2.143-4.81 2.682-7.6L394 254h2c.396-1.788.396-1.788.5-3.937.156-2.215.156-2.215.5-4.063l2-1c7.675-14.348 7.32-32.193 7-48l-.05-2.906C404.86 174.428 397.08 156.009 386 140l-1.054-1.535c-3.324-4.845-3.324-4.845-6.946-9.465h-2a189 189 0 0 1-2-4c-5.669-6.788-12.834-11.927-20-17l-2.582-1.879c-8.14-5.59-17.156-8.847-26.418-12.121l-2.305-.827c-4.61-1.607-9.032-2.799-13.882-3.36l-2.027-.238c-13.224-1.372-26.509-1.192-39.661.737m.297 53.707q-1.356 1.378-2.672 2.792l-1.39 1.409c-2.615 2.456-2.615 2.456-3.36 5.779h-2v2l-1.937.375L254 157c-.652 2.025-.652 2.025-1 4h-2v2c-1.324.685-2.66 1.349-4 2-1.751 1.417-1.751 1.417-3 3v2l-1.687.813c-3.13 1.607-4.957 3.57-7.313 6.187v2l-1.687.813c-4.175 2.143-7.023 5.793-9.973 9.359l-1.336 1.612L221 192a276 276 0 0 0 26.5 3.063l1.906.126c12.755.783 12.755.783 24.594-3.189 4.962-6.938 4.12-16.32 3.563-24.437l-.113-1.77c-.53-11.662-.53-11.662-3.45-22.793-3.221-1.534-3.679-1.252-6.578 1.02M308 142v1c1.748.103 3.5.13 5.25.133l3.281.004 3.469-.012 3.469.012 3.281-.004 3.047-.004L332 143v-1c-1.748-.103-3.5-.13-5.25-.133l-3.281-.004-3.469.012-3.469-.012-3.281.004-3.047.004zm-27 1c1.409 3.309 3.038 5.115 5.813 7.375 2.469 2.084 4.694 4.081 6.687 6.625 1.934 2.455 4.054 4.415 6.438 6.438 3.22 2.738 5.888 5.62 8.566 8.878 2.055 2.314 4.394 4.188 6.777 6.153 1.76 1.568 3.22 3.213 4.719 5.031 2.081 2.481 4.211 4.833 6.563 7.063l1.628 1.566c1.85 1.09 1.85 1.09 4.282.578 3.025-2.043 3.097-2.775 3.888-6.233 1.07-6.311 1.693-12.649 2.077-19.036l.202-3.353c.231-6.873.426-14.23-3.64-20.085-7.186-4.517-16.578-3.828-24.75-3.437l-1.786.085c-7.067.373-14.077 1.086-21.085 2.074-2.155.252-4.212.33-6.379.278m-58 55-2 2c1.118 2.213 1.118 2.213 3 4h3l.688 2.063c1.696 3.797 4.143 5.558 7.3 8.183A33 33 0 0 1 239.5 219c1.934 2.455 4.054 4.415 6.438 6.438 2.602 2.213 4.895 4.422 7.062 7.062 2.746 3.338 5.819 6.075 9.117 8.86 1.645 1.432 3.102 2.908 4.57 4.515 2.193 2.262 2.193 2.262 5.063 3.25L274 249c.657-2.286.657-2.286 1-5l.412-2.348c4.269-22.548 4.269-22.548-1.412-43.652-12.195-7.233-33.729-2.442-47.026-.31-1.428.224-2.562.31-3.974.31m101.43 5.273C323 205 323 205 321.32 206.102L320 207v2l-3 1a210 210 0 0 0-4 5l-2 1v2l-3 1c-1.45 1.465-1.45 1.465-2.812 3.25-2.033 2.48-4.049 4.571-6.563 6.563L296 231v2h-2c-1.212 1.23-1.212 1.23-2.375 2.813-1.995 2.515-4.041 4.273-6.625 6.187v2l-3 1-1 3c2.89.963 4.713 1.127 7.715 1.13l2.892.009 3.116-.006 3.2.003q3.351 0 6.701-.006c3.428-.005 6.856 0 10.284.007q3.252 0 6.502-.004l3.122.006 2.882-.01 2.543-.002c2.11.002 2.11.002 4.043-1.127 1.417-5.335 1.148-11.218 1.133-16.7l.003-2.418q0-2.51-.006-5.019c-.005-2.554 0-5.108.007-7.662q0-2.45-.004-4.9l.006-2.298c-.016-5.57-.016-5.57-1.139-11.003-4.881-1.674-6.88 1.74-9.57 5.273M267 256l4 1Zm-7 1 1 2Zm22 0 1 2Zm21 0c-.101 1.998-.13 4-.125 6l-.008 3.375L303 269h1c.101-1.998.13-4 .125-6l.008-3.375L304 257zm12 1c-.167 2.5-.167 2.5 0 5h1c.167-2.5.167-2.5 0-5zm-39 1c-.162 1.602-.162 1.602-.125 3.5l-.008 1.969L276 266h1c.162-1.602.162-1.602.125-3.5l.008-1.969L277 259zm33 0 1 4Zm10 0 1 3Zm6 4c-.167 2.5-.167 2.5 0 5h1c.167-2.5.167-2.5 0-5zm10 0 1 4Zm-75 1 2 4a70 70 0 0 0-1-4zm59 0 1 4Zm-4 2 1 2Zm-39 1v2l2-1zm72 19-1 2h2zm-3 2-1 2 3-1zm-113 1 1 2Zm111 1 1 2Zm-17 2v3l4-2zm13 3 1 2Zm-100 3v2l3-1zm88 1 1 2Zm-5 2 1 3Zm13 0 2 2 2-2zm-19 1v2l2-1zm-53 1 1 2Zm47 1 2 2v-2zm13 0 1 4 1-2zm-44 2v1c3 .167 3 .167 6 0v-1c-3-.167-3-.167-6 0m-7 2v3h2v-3zm44 0v2c1.96 1.637 1.96 1.637 4 3-.255-2.524-.255-2.524-1-5zm8 0 2 3v-3zm-32 3-1 2 1 2h2c.333-2 .333-2 0-4zm0 7v3l3-1h-2zm31-196 2 1Zm-99 67 2 1Zm162 77 2 1Zm-41 14 3 1Zm10 0c2.063.75 2.063.75 4 2 0 2.188 0 2.188-1 4-2.125.063-2.125.063-4-1 .25-2.562.25-2.562 1-5m4 5 3 1c.438 2.063.438 2.063 0 4-2 .25-2 .25-4 0 .313-2.562.313-2.562 1-5m-102 11 2 1Zm51 2 2 1Z"/><path fill="#fff" d="M210 304c.188 2.5.188 2.5 0 5 1.758.713 1.758.713 4 1 4.822 2.467 4.822 2.467 6 6l2-1c1.625.75 1.625.75 3 2v3h2l1-2h2l.375 2.063L231 322l1.79-.527C235 321 235 321 237 321.96l2 1.414c3.8 2.657 6.942 3.555 11.5 4.063 2.817.388 5.13.884 7.5 2.562l-1 2 3-1c2.125-.687 2.125-.687 4-1l1 2c2.978.264 5.909.367 8.896.39 1.881.07 1.881.07 5.104.61 1.441 2.04 1.441 2.04 2 4l.75-1.562L283 334c2.055.148 2.055.148 4 1 1.194 4.804.287 10.656-2 15a74 74 0 0 1-4-1c-2.42.196-4.775.566-7.172.941-.603.02-1.206.04-1.828.059v-2c-1.892-.168-1.892-.168-4.187 0-3.817.096-6.312-.4-9.813-2h-1.875c-3.139 0-6.295-.611-9.125-2l-1-3c-2.59.753-2.59.753-5 2v-2a100 100 0 0 0-5 0l-2-1v-2l-2.25-.437c-3.004-.615-4.48-1.546-6.75-3.563v-1l-2.875.563L219 334l-2-2v-3c-2.958-.167-2.958-.167-6 0-1-1-1-1-2-3h-2v-3l-1.937.688L203 324l-1-3-1.875-.875c-2.853-1.51-3.728-3.26-5.125-6.125 0-3 0-3 1.313-4.316l1.687-1.247c1.664-1.194 1.664-1.194 3-2.437v-2c3.271-1.636 5.492-.91 9 0m-7 7 1 2Zm2 2 1 2 1-2zm60 20 1 2 1-2zm5 3 1 2Zm11 7-1 5 2-2z"/><path fill="#fff" d="M365 307h3a69 69 0 0 1 1 7c.36 2.812.36 2.812 1 5h2c-.375 3-.375 3-1 6l-2.125-1.812c-2.772-2.233-5.654-3.69-8.875-5.188l1.375 1.688c1.725 2.455 2.948 4.377 3.625 7.312-1.866 1.866-3.654 2.827-6 4l-1.375 1.5c-1.913 1.765-3.128 1.88-5.625 2.5a95 95 0 0 0-4.125 2.063C344.221 339 344.221 339 342 339l-1 2-1-3-.875 2.438c-2.947 3.553-5.411 3.395-9.848 3.812C327 344 327 344 325.691 342.5L325 341l-1.312 3.063L322 347l-3-1c-.687-2.062-.687-2.062-1-4l-.375 2.438L316 347c-2.59.548-5.043.689-7.687.762-2.508.012-2.508.012-4.313 2.238l-4-2-2 2c-3-.062-3-.062-6-1-2.49-3.62-2.306-7.843-2.46-12.11L290 335c2.112-.852 3.733-1 6-1l2.063-.5c3.45-.587 6.66-.435 10.144-.242L310 333v-3c2.938-.125 2.938-.125 4.848-.047 2.374.052 4.664-.101 7.027-.328.76-.07 1.521-.14 2.305-.21.6-.138 1.201-.274 1.82-.415l1-2c2.756-2.756 7.491-2.348 11.137-2.621L340 324v-2c2.875-1.187 2.875-1.187 6-2l2 1v-2c1.934-1.219 1.934-1.219 4.438-2.5 3.433-1.587 3.433-1.587 5.562-4.5q3.001.49 6 1v-2l-2-1h3zm-15 19 1 2Zm-15 3 2 2v-2zm-18 2 2 2 1-2zm2 2 1 2Zm19 1 1 2Zm-23 3 1 4Zm16 0 1 2Zm-36 1c-.167 3-.167 3 0 6h1c.167-3 .167-3 0-6z"/><path fill="#fff" d="M237.75 104.938c3.017 1.424 3.867 3.078 5.25 6.062v2h2l1 3 2 2c1 2.063 1 2.063 1 4-2.812 1.063-2.812 1.063-6 1-1.187-2.437-1.187-2.437-2-5h-3l1.5 2.25c2.186 4.007 2.186 4.007 1.5 6.75-1.855.813-1.855.813-4 1-1.484-1.328-1.484-1.328-2.75-3.25l-1.297-1.89C232 121 232 121 232 118h-2c-1.687-2.812-1.687-2.812-3-6 1.275-3.824 2.725-4.44 6.156-6.262 1.844-.738 1.844-.738 4.594-.8M235 111v3l2-1v-2zm-11.75 2.125C225 114 225 114 226 116c-1.937 2.125-1.937 2.125-4 4l2.875-.75L228 119c1.5 1.813 1.5 1.813 2 4l-2 2 1 3 1.813-1.625L233 125c1.75.625 1.75.625 3 2 0 3 0 3-1.355 4.422-4.914 3.562-4.914 3.562-8.52 3.64L224 134c-.625-2-.625-2-1-4l-3-1c-2.802-2.864-4.936-5.63-5.125-9.687 1.754-3.606 4.141-6.423 8.375-6.188"/><path fill="#fff" d="m192.063 167.188 2.548.634 2.424.658 2.23.591c1.735.929 1.735.929 2.577 2.926L202 174q-1.47 1.53-3 3l1 3-.937 1.375c-1.36 1.692-1.36 1.692-.688 4.375L198 188c-3.01.059-5.099-.294-8-1l-1.67-.381a177 177 0 0 1-5.393-1.369l-1.807-.437c-1.665-.485-1.665-.485-4.13-1.813.095-3.08.784-5.784 3-8 2.125-.187 2.125-.187 4 0l-2.062-.562L180 173c-.167-2.442.18-4.696 1-7 3.547-1.774 7.38.181 11.063 1.188M192 181l4 1Z"/><path fill="#fff" d="M402 197c.688 2 .688 2 1 4-1.685 1.685-3.881 1.452-6.145 1.746-2.307.316-4.577.77-6.855 1.254 1.987 1.076 3.861 1.962 6.047 2.555 2.204.633 4.02 1.205 5.953 2.445 1.04 2.775.679 4.002 0 7-1.937.313-1.937.313-4 0l-1 2c-2.636.663-5.356.746-8.062.938-.76.08-1.518.16-2.3.244-2.173.158-2.173.158-5.638-.182-.559-2.434-.559-2.434 0-5l1-1 2.563.125L387 213v-3l-2.437-.437L382 209c-1.297-2.992-1.128-5.92-.748-9.134L382 198c1.734-.654 1.734-.654 3.965-.863l2.424-.248 2.548-.202c.838-.085 1.675-.17 2.538-.26 6.211-.584 6.211-.584 8.525.573"/><path fill="#fff" d="M392 161c2.625 1.5 2.625 1.5 4 4-1.25 2.75-1.25 2.75-3 5l1.938-.312L397 170c1.188 2.313 1.188 2.313 1 5-3.105 2.214-6.228 3-10 3l-1 2h-6l-1 2-2-2v-3l-2-1 2-2-3-1c-.473-2.43-.473-2.43 0-5 1.941-1.258 1.941-1.258 4.563-2.125 3.261-1.116 6.264-2.268 9.312-3.875zm-11 10-1 2 3-1z"/><path fill="#fff" d="M193 189c2.688 1.75 2.688 1.75 4 4 .374 3.05.432 5.075-.875 7.875L195 202h-2l-1 2c-2.066.266-2.066.266-4.562.25l-2.504.016L183 204v-2c-1.785-.26-3.573-.511-5.371-.656L176 201c-1.466-2.932-1.526-5.816-1-9 4.986-6.533 10.865-4.976 18-3m-12 5v3c2.51.447 2.51.447 5.5.313l3.094-.012L192 197v-2c-2.504-.59-2.504-.59-5.5-.812l-3.094-.333z"/><path fill="#fff" d="M400 180c1.259 3.776 1.802 7.062 1 11-3.871 3.973-8.112 4.888-13.586 5.219-3.23-.293-5.086-1.124-7.286-3.508-1.722-2.612-1.857-4.794-1.76-7.873.632-1.838.632-1.838 2.28-2.877 2.384-.712 4.705-1.15 7.164-1.524l2.526-.494c6.117-1.125 6.117-1.125 9.662.057m-5 5c-2.403.315-2.403.315-5.062 1.313l-2.786.925L385 188l2 2c2.265-.084 2.265-.084 4.688-.687.828-.17 1.657-.338 2.511-.512L396 188z"/><path fill="#fff" d="M279 92c1.563.598 1.563.598 3 2 1.787 4.995 3.613 10.974 2.543 16.258-.918 1.617-.918 1.617-3.543 3.742-3.586.95-6.156.466-9.375-1.312-3.12-3.241-2.846-6.904-2.937-11.188l-.114-3.469C269 95 269 95 270.828 93.113c2.902-1.487 4.953-1.455 8.172-1.113m-3 5-2 2c.123 2.46.123 2.46.75 5.125l.547 2.758L276 109h2c.325-1.954.325-1.954.25-4.312l.016-2.426c-.277-2.359-.785-3.445-2.266-5.262"/><path fill="#fff" d="M369 123c2.083 1.893 2.01 3.092 2.313 5.938-.343 3.359-.948 4.697-3.313 7.062h-2l-1 3c-1.625 1.75-1.625 1.75-4 3-4.538 0-6.135-.24-9.562-3.25C350 136 350 136 350.313 133.688c4.628-7.372 9.476-14.893 18.687-10.688m-6 4c-1.74 1.321-1.74 1.321-3.25 3.25l-1.64 1.89L357 134l1 3c2.946-2.866 5.627-5.628 8-9z"/><path fill="#fff" d="M199 134c3.966.166 7.147 2.883 10.25 5.125l1.68 1.11c2.246 1.626 3.815 2.772 4.522 5.524.11 2.713-.158 4.763-1.589 7.089l-1.55 1.214-1.512 1.286c-1.801.652-1.801.652-4.14.015-3.009-1.541-5.788-3.282-8.536-5.238l-1.547-1.027c-1.445-1.028-1.445-1.028-3.578-3.098.055-2.195.055-2.195 1-4l2-1a71 71 0 0 1 5.438 3.375c2.81 1.891 5.313 3.542 8.562 4.625v-2h-2v-2c-1.65-.707-3.32-1.366-5-2-2.875-1.25-2.875-1.25-5-3-.062-3.25-.062-3.25 1-6"/><path fill="#fff" d="M264 96c1.5 2.438 1.5 2.438 2 5l-2 2 3 1c1.524 2.743 2.037 4.484 1.813 7.625-.916 2.676-1.444 3.823-3.813 5.375-2.997.312-5.122.41-7.875-.875L256 115v-2l-2-1 1-3 2-1-2.062-1.562c-2.072-2.607-2.243-2.955-1.938-6.063.529-2.44.779-3.178 2.688-4.875 3.165-.684 5.23-.505 8.312.5m-5 4 1 2Zm1 9 1 3h2v-3z"/><path fill="#fff" d="M294.188 91.063C297 92 297 92 299 94c1 3.125 1 3.125 1 6-2.937.625-2.937.625-6 0-.25-2-.25-2 0-4h-2c-.325 2.481-.325 2.481-.25 5.438l-.016 3.058L292 107l2 1-.312-2 .312-2c2.438-.437 2.438-.437 5 0 1 3 1 3 .438 5.563C298 112 298 112 295.188 113.437c-3.579.632-5.094.42-8.188-1.437-1.76-5.28-2.46-12.779-.094-18 2.293-2.587 3.878-3.004 7.281-2.937"/><path fill="#fff" d="M183 206c-.187 2.563-.187 2.563-1 5h-2v2c2.527.017 2.527.017 5.5-.375l3.094-.336L191 212l-1.96-.836L187 210c-.625-2.625-.625-2.625 0-5 2.902-.451 5.029-.335 7.813.625 2.033 2.354 2.127 4.32 2.187 7.375-1.632 2.72-2.76 4.573-5.828 5.629-2.447.418-4.752.503-7.234.496l-2.598.008C179 219 179 219 176 218c-1.927-2.506-2.16-4.561-1.937-7.625.324-1.82.324-1.82.937-3.375 3.242-2.048 4.33-2.223 8-1"/><path fill="#fff" d="M313 94c3.295-.197 6.054.544 9 2 1.063 2.625 1.063 2.625 1 5l-2.937-.125L317 101l-1 2 2.563.188L321 104c.125 2.563.125 2.563-1 5-2.5.125-2.5.125-5 0l-1 3 2.5.438 2.5.562c.313 2.125.313 2.125-1 4-3.426.213-6.589-.495-9.8-1.645-1.2-1.355-1.2-1.355-1.126-4.359q.282-1.784.613-3.558l.28-1.827c.263-1.553.64-3.085 1.033-4.611l2-1 .563-3.187z"/><path fill="#fff" d="M193.563 149.938c2.856.608 3.392 1.012 5.437 3.312 1 2.75 1 2.75.313 5.313L199 161c1.497 1.198 3.08 2.072 4.746 3.016L205 165c-.375 2.313-.375 2.313-2 4-3.995-.434-7.644-2.656-11.187-4.437l-1.944-.948c-4.747-2.37-4.747-2.37-5.869-4.615 1.47-5.077 3.772-9.49 9.563-9.062M191 156v2l3 1v-3z"/><path fill="#fff" d="M375 133c2.738.83 3.747 1.537 5.125 4.063L381 139l2 1c-.125 2.063-.125 2.063-1 4-1.875.438-1.875.438-4 0-1.75-1.5-1.75-1.5-3-3l1.25 2.875L377 147c-1.75 1.625-1.75 1.625-4 2l-.875-2.125L371 145c-1.52.959-3.036 1.934-4.469 3.02-1.531.98-1.531.98-3.906.98-1.625-1-1.625-1-2.059-2.773.665-3.412 3.108-4.856 5.747-6.852l1.513-1.195c1.377-1.08 2.775-2.13 4.174-3.18l1.727-1.312z"/><path fill="#fff" d="M340 104c2.563 1.188 2.563 1.188 5 3 .313 2.188.313 2.188 0 4l2.313-1.125c2.687-.875 2.687-.875 4.5-.125C353 111 353 111 353 113l-1.937.438L349 114l-1 3-4 1-1 3h-2l-.812 2.563L339 126c-2.75.188-2.75.188-5-1 .474-2.266 1.064-3.919 2-6 1.54-4.166 2.344-7.968 2.754-12.363C339 105 339 105 340 104"/><path fill="#fff" d="M326 98c2.855.504 2.855.504 6.188 1.563l1.732.478c1.623.525 1.623.525 4.08 1.959.176 2.715.176 2.715-1 5-.81-.18-1.622-.36-2.457-.547L332 106c-1.223 2.503-1.223 2.503-1.687 5.75-1.425 7.375-1.425 7.375-3.313 9.25-2.687-.5-2.687-.5-5-2 0-3.906 1.986-7.653 3.477-11.23.766-1.852.766-1.852-.477-3.77-.687-2-.687-2-1-4zm1 23 2 1Z"/><path fill="#fff" d="M211 122c2.297.688 2.297.688 4 2l-1.062 1.875L213 128c2.343 2.175 2.343 2.175 5 4v2h2v2l3 1c-.125 2.5-.125 2.5-1 5l-3 1c-1.246-1.11-1.246-1.11-2.437-2.75-1.968-2.576-3.952-4.316-6.563-6.25v-2l-2.375 1.063L205 134l-2-1c.324-3.506 1.917-5.403 4.313-7.875l1.8-1.93z"/><path fill="#fff" d="M304 93c2.566.059 2.566.059 5 1 .562 3.677-.366 7.354-1 11l-.355 2.473c-.369 2.01-.731 3.699-1.645 5.527-2.5 1.125-2.5 1.125-5 1l-2-2 1-1c.28-1.167.512-2.345.719-3.527l.386-2.15.395-2.26q.387-2.202.781-4.403l.346-1.98C303 95 303 95 304 93"/><path fill="#fff" d="M390.512 154.145C392 156 392 156 392 158c-1.285.93-1.285.93-3.062 1.875-1.955 1.048-3.877 2.086-5.75 3.273-3.8 2.392-6.553 3.624-11.188 2.852l-1-3c1.726-3.452 5.474-4.598 8.813-6.312l2.197-1.206c5.379-2.76 5.379-2.76 8.502-1.337"/><path fill="#fff" d="m230 279 3 1h-3z"/><path fill="#fff" d="m307 328 2 1Z"/><path fill="#fff" d="m379 203 2 1Z"/><path fill="#fff" d="m376 182 2 1Z"/><path fill="#fff" d="m394 178 2 1Z"/></svg>